HIERARCHY
ROOT Hips
{
	OFFSET 0.000000 83.214638 0.000000
	CHANNELS 6 Xposition Yposition Zposition Xrotation Yrotation Zrotation
	JOINT Pelvis
	{
		OFFSET 0.000000 0.000000 0.000000
		CHANNELS 3 Xrotation Yrotation Zrotation
		JOINT LeftUpLeg
		{
			OFFSET 8.479700 -4.795502 -0.379100
			CHANNELS 3 Xrotation Yrotation Zrotation
			JOINT LeftLeg
			{
				OFFSET 0.024144 -32.555107 0.112900
				CHANNELS 3 Xrotation Yrotation Zrotation
				JOINT LeftFoot
				{
					OFFSET -0.024144 -32.638630 -3.012600
					CHANNELS 3 Xrotation Yrotation Zrotation
					JOINT LeftToeBase
					{
						OFFSET 0.970200 -13.225400 11.864200
						CHANNELS 3 Xrotation Yrotation Zrotation
						End Site
						{
							OFFSET 0.000000 12.319262 0.000000
						}
					}
					JOINT LFootTongue
					{
						OFFSET 1.142400 -1.059800 6.665200
						CHANNELS 3 Xrotation Yrotation Zrotation
						End Site
						{
							OFFSET 0.000000 12.319262 0.000000
						}
					}
				}
				JOINT LeftPantLeg
				{
					OFFSET 0.918482 -16.533964 -2.284700
					CHANNELS 3 Xrotation Yrotation Zrotation
					End Site
					{
						OFFSET 0.350399 24.744368 0.000000
					}
				}
			}
		}
		JOINT RightUpLeg
		{
			OFFSET -8.479700 -4.795502 -0.379100
			CHANNELS 3 Xrotation Yrotation Zrotation
			JOINT RightLeg
			{
				OFFSET -0.023144 -32.555092 0.112900
				CHANNELS 3 Xrotation Yrotation Zrotation
				JOINT RightFoot
				{
					OFFSET 0.023144 -32.638641 -3.012700
					CHANNELS 3 Xrotation Yrotation Zrotation
					JOINT RightToeBase
					{
						OFFSET -0.970200 -13.225400 11.864200
						CHANNELS 3 Xrotation Yrotation Zrotation
						End Site
						{
							OFFSET 0.000000 12.319244 0.000000
						}
					}
					JOINT RFootTongue
					{
						OFFSET -1.142200 -1.059800 6.665200
						CHANNELS 3 Xrotation Yrotation Zrotation
						End Site
						{
							OFFSET 0.000000 12.319243 0.000000
						}
					}
				}
				JOINT RightPantLeg
				{
					OFFSET -0.919482 -16.533978 -2.284800
					CHANNELS 3 Xrotation Yrotation Zrotation
					End Site
					{
						OFFSET -0.350400 24.744419 0.000000
					}
				}
			}
		}
	}
	JOINT Spine
	{
		OFFSET 0.000000 7.722000 1.166200
		CHANNELS 3 Xrotation Yrotation Zrotation
		JOINT Spine1
		{
			OFFSET 0.000000 12.024101 0.248800
			CHANNELS 3 Xrotation Yrotation Zrotation
			JOINT Spine2
			{
				OFFSET 0.000000 11.502998 -0.491200
				CHANNELS 3 Xrotation Yrotation Zrotation
				JOINT Neck
				{
					OFFSET 0.000000 18.430702 -3.123100
					CHANNELS 3 Xrotation Yrotation Zrotation
					JOINT Head
					{
						OFFSET 0.000000 9.051102 1.034000
						CHANNELS 3 Xrotation Yrotation Zrotation
						JOINT HairB
						{
							OFFSET 0.208400 24.786102 24.822300
							CHANNELS 3 Xrotation Yrotation Zrotation
							End Site
							{
								OFFSET 0.000000 32.263779 0.000000
							}
						}
						JOINT HairA
						{
							OFFSET -7.081100 24.428299 23.196600
							CHANNELS 3 Xrotation Yrotation Zrotation
							End Site
							{
								OFFSET 0.000000 32.263779 0.000000
							}
						}
						JOINT Hat
						{
							OFFSET 16.728800 15.048294 -15.439601
							CHANNELS 3 Xrotation Yrotation Zrotation
							End Site
							{
								OFFSET 0.000000 32.263779 0.000000
							}
						}
					}
				}
				JOINT LeftShoulder
				{
					OFFSET 6.197800 13.665199 -4.064700
					CHANNELS 3 Xrotation Yrotation Zrotation
					JOINT LeftArm
					{
						OFFSET 7.778100 -0.187103 -1.709300
						CHANNELS 3 Xrotation Yrotation Zrotation
						JOINT LeftForeArm
						{
							OFFSET 22.049376 0.000000 0.000000
							CHANNELS 3 Xrotation Yrotation Zrotation
							JOINT LeftHand
							{
								OFFSET 23.009392 0.000000 0.000000
								CHANNELS 3 Xrotation Yrotation Zrotation
								JOINT LeftHandThumb1
								{
									OFFSET 3.507191 -2.063065 3.133727
									CHANNELS 3 Xrotation Yrotation Zrotation
									JOINT LeftHandThumb2
									{
										OFFSET 3.101337 -1.790558 1.790558
										CHANNELS 3 Xrotation Yrotation Zrotation
										JOINT LeftHandThumb3
										{
											OFFSET 3.058640 -1.765907 1.765906
											CHANNELS 3 Xrotation Yrotation Zrotation
											End Site
											{
												OFFSET -0.415260 3.926476 -0.049563
											}
										}
									}
								}
								JOINT LeftHandIndex1
								{
									OFFSET 11.334419 -0.901459 3.706815
									CHANNELS 3 Xrotation Yrotation Zrotation
									JOINT LeftHandIndex2
									{
										OFFSET 3.283112 0.000000 0.000000
										CHANNELS 3 Xrotation Yrotation Zrotation
										JOINT LeftHandIndex3
										{
											OFFSET 3.323853 0.000000 0.000000
											CHANNELS 3 Xrotation Yrotation Zrotation
											End Site
											{
												OFFSET -1.135597 3.097809 0.402452
											}
										}
									}
								}
								JOINT LeftHandMiddle1
								{
									OFFSET 11.335861 0.000000 0.000000
									CHANNELS 3 Xrotation Yrotation Zrotation
									JOINT LeftHandMiddle2
									{
										OFFSET 3.410492 0.000000 0.000000
										CHANNELS 3 Xrotation Yrotation Zrotation
										JOINT LeftHandMiddle3
										{
											OFFSET 3.312172 0.000000 0.000000
											CHANNELS 3 Xrotation Yrotation Zrotation
											End Site
											{
												OFFSET -1.150200 3.080154 0.400270
											}
										}
									}
								}
								JOINT LeftHandRing1
								{
									OFFSET 11.514786 -0.013176 -3.003090
									CHANNELS 3 Xrotation Yrotation Zrotation
									JOINT LeftHandRing2
									{
										OFFSET 3.053307 0.000000 0.000000
										CHANNELS 3 Xrotation Yrotation Zrotation
										JOINT LeftHandRing3
										{
											OFFSET 3.295807 0.000000 0.000000
											CHANNELS 3 Xrotation Yrotation Zrotation
											End Site
											{
												OFFSET -1.281006 3.013344 0.375733
											}
										}
									}
								}
								JOINT LeftHandPinky1
								{
									OFFSET 10.518692 -0.960396 -5.730441
									CHANNELS 3 Xrotation Yrotation Zrotation
									JOINT LeftHandPinky2
									{
										OFFSET 2.861649 0.000000 0.000000
										CHANNELS 3 Xrotation Yrotation Zrotation
										JOINT LeftHandPinky3
										{
											OFFSET 2.863380 0.000000 0.000000
											CHANNELS 3 Xrotation Yrotation Zrotation
											End Site
											{
												OFFSET -0.843597 2.711159 0.369971
											}
										}
									}
								}
							}
							JOINT LSleeve
							{
								OFFSET 6.676277 -0.344902 -1.011730
								CHANNELS 3 Xrotation Yrotation Zrotation
								End Site
								{
									OFFSET 0.000000 14.885353 0.000000
								}
							}
						}
					}
				}
				JOINT RightShoulder
				{
					OFFSET -6.197800 13.665199 -4.064700
					CHANNELS 3 Xrotation Yrotation Zrotation
					JOINT RightArm
					{
						OFFSET -7.778100 -0.187103 -1.709300
						CHANNELS 3 Xrotation Yrotation Zrotation
						JOINT RightForeArm
						{
							OFFSET -22.049376 0.000000 0.000000
							CHANNELS 3 Xrotation Yrotation Zrotation
							JOINT RightHand
							{
								OFFSET -23.009392 0.000000 0.000000
								CHANNELS 3 Xrotation Yrotation Zrotation
								JOINT RightHandThumb1
								{
									OFFSET -3.507191 -2.063065 3.133727
									CHANNELS 3 Xrotation Yrotation Zrotation
									JOINT RightHandThumb2
									{
										OFFSET -3.101337 -1.790558 1.790558
										CHANNELS 3 Xrotation Yrotation Zrotation
										JOINT RightHandThumb3
										{
											OFFSET -3.058640 -1.765907 1.765906
											CHANNELS 3 Xrotation Yrotation Zrotation
											End Site
											{
												OFFSET 0.415260 3.926476 -0.049563
											}
										}
									}
								}
								JOINT RightHandIndex1
								{
									OFFSET -11.334419 -0.901459 3.706815
									CHANNELS 3 Xrotation Yrotation Zrotation
									JOINT RightHandIndex2
									{
										OFFSET -3.283112 0.000000 0.000000
										CHANNELS 3 Xrotation Yrotation Zrotation
										JOINT RightHandIndex3
										{
											OFFSET -3.323853 0.000000 0.000000
											CHANNELS 3 Xrotation Yrotation Zrotation
											End Site
											{
												OFFSET 1.135597 3.097809 0.402452
											}
										}
									}
								}
								JOINT RightHandMiddle1
								{
									OFFSET -11.335861 0.000000 0.000000
									CHANNELS 3 Xrotation Yrotation Zrotation
									JOINT RightHandMiddle2
									{
										OFFSET -3.410492 0.000000 0.000000
										CHANNELS 3 Xrotation Yrotation Zrotation
										JOINT RightHandMiddle3
										{
											OFFSET -3.312172 0.000000 0.000000
											CHANNELS 3 Xrotation Yrotation Zrotation
											End Site
											{
												OFFSET 1.150200 3.080154 0.400270
											}
										}
									}
								}
								JOINT RightHandRing1
								{
									OFFSET -11.514786 -0.013176 -3.003090
									CHANNELS 3 Xrotation Yrotation Zrotation
									JOINT RightHandRing2
									{
										OFFSET -3.053307 0.000000 0.000000
										CHANNELS 3 Xrotation Yrotation Zrotation
										JOINT RightHandRing3
										{
											OFFSET -3.295807 0.000000 0.000000
											CHANNELS 3 Xrotation Yrotation Zrotation
											End Site
											{
												OFFSET 1.281006 3.013344 0.375733
											}
										}
									}
								}
								JOINT RightHandPinky1
								{
									OFFSET -10.518692 -0.960396 -5.730441
									CHANNELS 3 Xrotation Yrotation Zrotation
									JOINT RightHandPinky2
									{
										OFFSET -2.861649 0.000000 0.000000
										CHANNELS 3 Xrotation Yrotation Zrotation
										JOINT RightHandPinky3
										{
											OFFSET -2.863380 0.000000 0.000000
											CHANNELS 3 Xrotation Yrotation Zrotation
											End Site
											{
												OFFSET 0.843597 2.711159 0.369971
											}
										}
									}
								}
							}
							JOINT RSleeve
							{
								OFFSET -6.676277 -0.344902 -1.011730
								CHANNELS 3 Xrotation Yrotation Zrotation
								End Site
								{
									OFFSET 0.000000 14.885353 0.000000
								}
							}
						}
					}
				}
				JOINT Backpack
				{
					OFFSET 0.000000 -2.471497 36.677502
					CHANNELS 3 Xrotation Yrotation Zrotation
					End Site
					{
						OFFSET 0.000000 20.427315 0.000000
					}
				}
				JOINT Hood
				{
					OFFSET 0.000000 18.754097 -10.431000
					CHANNELS 3 Xrotation Yrotation Zrotation
					JOINT Hood1
					{
						OFFSET 0.000000 -5.011002 -7.685901
						CHANNELS 3 Xrotation Yrotation Zrotation
						End Site
						{
							OFFSET 0.000000 9.175140 0.000000
						}
					}
				}
				JOINT LHoodieString
				{
					OFFSET 5.250500 16.397697 3.089900
					CHANNELS 3 Xrotation Yrotation Zrotation
					JOINT LHoodieString1
					{
						OFFSET 0.257700 -6.364304 3.694600
						CHANNELS 3 Xrotation Yrotation Zrotation
						JOINT LHoodieString2
						{
							OFFSET 0.000000 -9.643799 2.679100
							CHANNELS 3 Xrotation Yrotation Zrotation
							End Site
							{
								OFFSET 0.000000 10.009018 0.000000
							}
						}
					}
				}
				JOINT RHoodieString
				{
					OFFSET -5.250500 16.397697 3.089900
					CHANNELS 3 Xrotation Yrotation Zrotation
					JOINT RHoodieString1
					{
						OFFSET -0.257700 -6.364304 3.694600
						CHANNELS 3 Xrotation Yrotation Zrotation
						JOINT RHoodieString2
						{
							OFFSET 0.000000 -9.643799 2.679100
							CHANNELS 3 Xrotation Yrotation Zrotation
							End Site
							{
								OFFSET 0.000000 10.009018 0.000000
							}
						}
					}
				}
			}
			JOINT LBackpack_Strap
			{
				OFFSET 15.223200 -7.719803 -6.610900
				CHANNELS 3 Xrotation Yrotation Zrotation
				End Site
				{
					OFFSET 0.000000 16.040596 0.000000
				}
			}
			JOINT RBackpack_Strap
			{
				OFFSET -15.223000 -7.719803 -6.610900
				CHANNELS 3 Xrotation Yrotation Zrotation
				End Site
				{
					OFFSET 0.000000 16.040596 0.000000
				}
			}
		}
	}
	JOINT BoyFacialAnim_Joint
	{
		OFFSET 1.000000 -82.208099 -1.550900
		CHANNELS 3 Xrotation Yrotation Zrotation
		End Site
		{
			OFFSET 0.000000 30.012791 0.000000
		}
	}
}
MOTION
Frames: 4
Frame Time: 0.033333
2.465773 80.683487 24.303905 -2.165212 -17.410958 -2.539415 0.000000 -0.000001 0.000000 -13.805084 6.744519 2.357063 29.908644 -4.571592 0.716021 -13.913982 -0.347139 2.924830 -0.000000 -0.000001 0.000000 -0.000000 -0.000001 0.000000 -0.000000 0.000000 0.000000 2.946335 -15.435720 -15.345710 16.777342 9.026474 -3.133457 1.099103 9.037437 15.610717 -0.000001 0.000001 -0.000001 -0.000001 0.000001 -0.000001 -0.000001 -0.000000 -0.000000 4.479649 2.953153 -0.379958 0.781838 0.839345 -0.297658 0.778351 0.850155 -0.283010 -0.569432 -1.988825 1.763085 -26.657315 -18.212022 -0.262874 0.000003 0.000002 0.000001 0.000003 0.000002 0.000001 0.000003 0.000002 0.000001 0.785114 -3.943164 -11.076462 9.751966 -25.131761 -31.348188 -0.000001 -66.274459 -0.000006 -7.372764 -1.910262 -57.662936 -7.220043 -16.942351 15.004580 8.365125 0.786629 4.842063 0.000000 0.000001 -0.000001 -1.046685 -1.764939 -14.281388 1.079036 3.389549 -35.307492 0.000000 -0.000001 -0.000002 0.804535 5.209214 -29.084633 1.077912 3.387990 -35.288702 0.000003 -0.000000 -0.000005 6.614416 12.570675 -38.441032 1.890184 4.310001 -47.344792 -0.000000 -0.000000 -0.000002 10.318017 26.434632 -49.086094 0.990381 3.261028 -33.779633 0.000002 -0.000001 0.000001 -0.000002 0.000001 -0.000002 -0.482390 18.082374 9.717047 -16.975952 41.356164 52.171980 -0.000001 117.915197 0.000004 -14.197182 -5.780682 -40.834218 41.273839 44.347329 -1.044396 27.157501 -35.762512 22.919128 -0.000001 0.000003 -0.000002 0.912806 19.627609 31.247668 3.101994 -4.390380 70.472437 -0.000004 -0.000001 0.000002 -0.801983 -1.363369 24.079205 3.349819 -4.470303 73.679942 0.000005 -0.000001 0.000003 2.725381 -8.501194 27.653925 2.293164 -4.013700 59.467909 -0.000005 0.000001 0.000002 5.091084 -30.409256 37.229486 2.194112 -3.953772 58.042176 0.000000 -0.000001 0.000002 -0.000001 0.000001 -0.000003 -0.000000 -0.000001 -0.000000 -0.000000 -0.000001 -0.000000 -0.000000 -0.000001 -0.000000 -0.000000 -0.000001 -0.000000 -0.000000 -0.000001 0.000000 -0.000000 -0.000001 -0.000000 -0.000000 -0.000001 -0.000000 -0.000000 -0.000001 0.000000 -0.000000 -0.000001 -0.000000 0.000000 0.000000 0.000000 0.000000 0.000000 0.000000 0.000000 -0.000001 0.000000 
2.398513 80.688286 23.951614 -2.200644 -17.180407 -2.372790 0.000000 0.000000 0.000000 -13.929367 6.685491 2.322925 29.657638 -4.799605 0.700402 -13.608510 -0.322080 2.813813 0.000000 -0.000002 0.000000 0.000000 -0.000002 0.000000 -0.000000 -0.000001 0.000001 3.060517 -15.451373 -15.246499 16.703475 8.931234 -3.171159 0.347401 8.615019 15.585616 0.000000 0.000001 -0.000001 0.000000 0.000001 -0.000001 0.000001 -0.000002 0.000002 4.415015 2.935667 -0.353978 0.854647 0.839348 -0.324189 0.851272 0.843825 -0.309514 -0.569303 -1.865424 1.649568 -27.147857 -17.086114 -0.062144 0.000000 0.000002 0.000001 0.000000 0.000002 0.000001 0.000000 0.000002 0.000001 0.794379 -3.877322 -10.936388 9.741508 -25.437342 -31.455258 0.000020 -66.124311 0.000019 -7.222145 -2.063544 -57.761660 -7.220044 -16.942344 15.004580 8.365611 0.808205 4.843122 -0.000001 0.000002 0.000002 -1.043392 -1.762672 -14.254522 1.078729 3.389162 -35.302714 -0.000002 0.000003 -0.000003 0.804854 5.209788 -29.091292 1.077916 3.387994 -35.288702 -0.000002 -0.000001 0.000000 6.609614 12.570992 -38.413981 1.890174 4.309985 -47.344539 -0.000002 -0.000001 -0.000001 10.257205 26.405353 -48.977859 0.991165 3.262197 -33.793239 0.000002 0.000000 0.000002 -0.000001 0.000002 0.000001 -0.549013 19.874326 10.100294 -9.356629 44.364790 47.805150 0.000075 116.089078 -0.000066 -15.330146 -5.034290 -41.865156 41.273856 44.347325 -1.044401 27.157382 -35.762577 22.919122 -0.000004 0.000004 -0.000004 0.912820 19.627611 31.247661 3.101992 -4.390386 70.472444 0.000000 0.000000 0.000002 -0.801972 -1.363372 24.079212 3.349810 -4.470302 73.679928 0.000002 0.000001 0.000002 2.725390 -8.501193 27.653916 2.293161 -4.013704 59.467923 0.000002 0.000000 0.000002 5.091099 -30.409262 37.229483 2.194111 -3.953749 58.041957 0.000002 -0.000001 -0.000002 -0.000001 0.000002 -0.000002 -0.000000 0.000001 -0.000000 -0.000000 0.000001 -0.000000 -0.000000 0.000001 -0.000000 -0.000000 0.000001 -0.000000 -0.000000 0.000001 -0.000000 -0.000001 0.000001 -0.000000 -0.000000 0.000001 -0.000000 -0.000000 0.000001 -0.000000 -0.000001 0.000001 -0.000000 -0.000000 -0.000001 0.000000 -0.000000 -0.000001 0.000000 0.000000 0.000000 0.000000 
2.328280 80.688751 23.563112 -2.256921 -16.924644 -2.211429 0.000000 0.000002 0.000000 -14.028257 6.633189 2.306640 29.338787 -5.093395 0.698051 -13.285073 -0.277363 2.622360 -0.000000 0.000001 -0.000000 -0.000000 0.000001 -0.000000 0.000001 0.000001 0.000000 3.212186 -15.466670 -15.115151 16.607521 8.828327 -3.222399 -0.458670 8.155622 15.557760 0.000002 0.000000 -0.000000 0.000002 0.000000 -0.000000 -0.000000 -0.000001 -0.000003 4.368560 2.923540 -0.348995 0.940733 0.834877 -0.356313 0.937575 0.833747 -0.342042 -0.569023 -1.742427 1.536195 -27.635027 -15.964063 0.138797 -0.000001 0.000001 -0.000000 -0.000001 0.000001 -0.000000 -0.000001 0.000001 -0.000000 0.807414 -3.839159 -10.680801 9.779118 -25.821018 -31.559347 0.000002 -65.949131 0.000013 -7.100231 -2.206840 -57.887042 -7.220044 -16.942344 15.004582 8.365547 0.821873 4.843361 -0.000000 0.000004 0.000002 -1.042877 -1.745808 -14.289777 1.075929 3.385201 -35.255261 -0.000002 -0.000000 -0.000002 0.805381 5.210721 -29.101886 1.077909 3.387993 -35.288705 0.000002 -0.000004 -0.000004 6.608007 12.571081 -38.404996 1.890178 4.309999 -47.344515 0.000001 -0.000003 -0.000001 10.189286 26.371174 -48.857764 0.993807 3.266143 -33.839868 0.000003 -0.000001 0.000001 0.000001 -0.000001 0.000004 -0.603309 21.334774 10.347971 -2.567186 47.510140 43.550171 0.000034 112.906476 -0.000046 -16.192654 -4.131619 -42.627822 41.273829 44.347346 -1.044384 27.157262 -35.762642 22.919118 -0.000001 0.000001 0.000000 0.912817 19.627619 31.247685 3.101995 -4.390365 70.472423 -0.000000 -0.000001 -0.000000 -0.801975 -1.363362 24.079236 3.349809 -4.470299 73.679942 0.000006 -0.000001 -0.000000 2.725381 -8.501181 27.653928 2.293161 -4.013704 59.467909 -0.000003 0.000001 0.000002 5.091105 -30.409256 37.229483 2.194092 -3.953743 58.041711 0.000000 -0.000001 0.000002 -0.000002 0.000000 -0.000002 0.000000 0.000001 -0.000000 0.000000 0.000001 -0.000000 0.000000 0.000001 -0.000000 0.000000 0.000001 -0.000000 0.000000 0.000001 -0.000000 -0.000000 -0.000000 -0.000000 0.000000 0.000001 -0.000000 0.000000 0.000001 -0.000000 -0.000000 -0.000000 -0.000000 -0.000000 -0.000000 0.000000 -0.000000 -0.000000 0.000000 0.000000 0.000002 0.000000 
2.251898 80.685905 23.142725 -2.333137 -16.651883 -2.054697 -0.000000 0.000000 0.000000 -14.205115 6.581404 2.358713 29.096811 -5.499372 0.708048 -12.776594 -0.194946 2.143091 0.000000 -0.000000 -0.000000 0.000000 -0.000000 -0.000000 -0.000002 -0.000000 0.000000 3.397597 -15.478684 -14.952017 16.491155 8.731419 -3.286105 -1.306711 7.659226 15.518468 0.000001 0.000000 0.000001 0.000001 0.000000 0.000001 0.000002 -0.000001 -0.000003 4.378393 2.871210 -0.313745 1.019070 0.814358 -0.379948 1.016157 0.816652 -0.366245 -0.568445 -1.621208 1.424342 -28.093365 -14.862215 0.340317 -0.000000 -0.000001 -0.000000 -0.000000 -0.000001 -0.000000 -0.000000 -0.000001 -0.000000 0.817205 -3.885866 -10.436795 9.874072 -26.127716 -31.615453 0.000040 -65.832949 0.000060 -6.970732 -2.336891 -58.028345 -7.220043 -16.942353 15.004582 8.365258 0.831804 4.843747 0.000000 -0.000001 0.000001 -1.043259 -1.716632 -14.363995 1.075194 3.384170 -35.242939 -0.000000 -0.000002 -0.000002 0.805571 5.211055 -29.105393 1.077892 3.387967 -35.288661 0.000005 0.000000 0.000000 6.597503 12.571783 -38.345853 1.891434 4.311136 -47.361143 -0.000001 -0.000001 -0.000000 10.147490 26.361354 -48.771796 0.995507 3.268665 -33.869740 -0.000001 -0.000001 0.000001 -0.000001 0.000001 0.000000 -0.609347 22.501198 10.377679 3.241722 50.717136 39.588111 0.000033 108.935691 -0.000037 -17.544067 -3.288693 -43.393114 41.273850 44.347336 -1.044380 27.157141 -35.762700 22.919145 -0.000000 0.000001 0.000000 0.912824 19.627624 31.247682 3.101993 -4.390383 70.472417 -0.000002 0.000000 0.000004 -0.801958 -1.363370 24.079227 3.349814 -4.470285 73.679949 0.000001 0.000000 0.000005 2.725390 -8.501191 27.653921 2.293160 -4.013715 59.467923 -0.000000 -0.000001 0.000002 5.091120 -30.409249 37.229490 2.194062 -3.953745 58.041445 0.000000 -0.000001 0.000002 -0.000003 -0.000002 0.000002 -0.000000 -0.000001 0.000000 -0.000000 -0.000001 0.000000 -0.000000 -0.000001 0.000000 -0.000000 -0.000001 0.000000 -0.000000 -0.000001 0.000000 -0.000000 -0.000001 -0.000000 -0.000000 -0.000001 0.000000 -0.000000 -0.000001 0.000000 -0.000000 -0.000001 -0.000000 0.000000 0.000000 -0.000000 0.000000 0.000000 -0.000000 -0.000000 0.000000 0.000000 
